<?xml version="1.0" encoding="UTF-8" standalone="no"?>
<!-- Created with Inkscape (http://www.inkscape.org/) -->

<svg
   xmlns:dc="http://purl.org/dc/elements/1.1/"
   xmlns:cc="http://creativecommons.org/ns#"
   xmlns:rdf="http://www.w3.org/1999/02/22-rdf-syntax-ns#"
   xmlns:svg="http://www.w3.org/2000/svg"
   xmlns="http://www.w3.org/2000/svg"
   xmlns:sodipodi="http://sodipodi.sourceforge.net/DTD/sodipodi-0.dtd"
   xmlns:inkscape="http://www.inkscape.org/namespaces/inkscape"
   width="270mm"
   height="90mm"
   viewBox="0 0 956.69289 318.89764"
   id="svg2"
   version="1.1"
   inkscape:version="0.91 r13725"
   inkscape:export-filename="/home/ricky/path4918.png"
   inkscape:export-xdpi="28.219999"
   inkscape:export-ydpi="28.219999"
   sodipodi:docname="runnerupweb.svg">
  <sodipodi:namedview
     id="base"
     pagecolor="#ffffff"
     bordercolor="#666666"
     borderopacity="1.0"
     inkscape:pageopacity="0.0"
     inkscape:pageshadow="2"
     inkscape:zoom="0.7"
     inkscape:cx="583.77372"
     inkscape:cy="69.145603"
     inkscape:document-units="px"
     inkscape:current-layer="text4919"
     showgrid="false"
     inkscape:window-width="1856"
     inkscape:window-height="1014"
     inkscape:window-x="0"
     inkscape:window-y="27"
     inkscape:window-maximized="0" />
  <defs
     id="defs4">
    <inkscape:path-effect
       effect="rough_hatches"
       id="path-effect4915"
       is_visible="true"
       direction="326.50792,30.855584 , 16.220545,0"
       dist_rdm="75;1"
       growth="0"
       do_bend="true"
       bender="326.50792,35.855584 , 5,0"
       bottom_edge_variation="1.666931;1"
       top_edge_variation="1.666931;1"
       bottom_tgt_variation="0;1"
       top_tgt_variation="0;1"
       scale_bf="1"
       scale_bb="1"
       scale_tf="1"
       scale_tb="1"
       top_smth_variation="0;1"
       bottom_smth_variation="0;1"
       fat_output="true"
       stroke_width_top="1.5"
       stroke_width_bottom="1"
       front_thickness="1"
       back_thickness="0.25" />
    <inkscape:path-effect
       effect="bend_path"
       id="path-effect4911"
       is_visible="false"
       bendpath="m 294.06683,35.855584 64.88218,0"
       prop_scale="2"
       scale_y_rel="false"
       vertical="false" />
    <inkscape:path-effect
       effect="envelope"
       id="path-effect4909"
       is_visible="false"
       yy="true"
       xx="true"
       bendpath1="m 294.06683,27.520929 64.88218,0"
       bendpath2="m 358.94901,27.520929 0,16.66931"
       bendpath3="m 294.06683,44.190239 64.88218,0"
       bendpath4="m 294.06683,27.520929 0,16.66931" />
  </defs>
  <metadata
     id="metadata7">
    <rdf:RDF>
      <cc:Work
         rdf:about="">
        <dc:format>image/svg+xml</dc:format>
        <dc:type
           rdf:resource="http://purl.org/dc/dcmitype/StillImage" />
        <dc:title></dc:title>
      </cc:Work>
    </rdf:RDF>
  </metadata>
  <g
     id="layer1"
     inkscape:groupmode="layer"
     inkscape:label="Layer 1"
     transform="translate(0,-733.46457)">
    <path
       style="fill:#001642;fill-opacity:1;stroke:#002142;stroke-width:1.52723885;stroke-miterlimit:4;stroke-dasharray:none;stroke-opacity:1"
       d="m 271.56318,1012.6372 c -16.84052,-18.1288 -34.50556,-37.14948 -39.25564,-42.26819 -4.75007,-5.11872 -8.63474,-10.70277 -8.63259,-12.40901 0.005,-3.7469 15.09893,-20.9402 18.38364,-20.9402 1.28135,0 16.47408,15.18165 33.76164,33.73699 44.9749,48.27311 47.059,50.68821 47.059,54.53211 0,4.1779 -14.36486,20.3097 -18.0852,20.3097 -1.4373,0 -16.38042,-14.822 -33.23085,-32.9614 z m -61.04976,10.7024 c -29.54961,-4.0386 -29.80715,-4.208 -28.31167,-18.6128 0.58006,-5.58727 1.99814,-10.93421 3.1648,-11.93298 1.62313,-1.38953 8.3173,-1.01493 28.8369,1.61371 14.69767,1.88284 27.99924,4.12535 29.55905,4.9834 2.51287,1.38217 2.73361,2.81957 1.93747,12.61537 -0.64314,7.9132 -1.63772,11.6129 -3.49932,13.0171 -3.1241,2.3564 -1.49201,2.4431 -31.68723,-1.6838 z m -52.89754,-31.64261 c -4.84679,-5.67162 -7.61703,-10.33087 -7.60855,-12.79679 0.009,-2.77214 5.41621,-10.06961 18.96216,-25.59358 36.28031,-41.578 42.92967,-48.86046 44.61292,-48.86046 0.93151,0 5.60414,3.99169 10.38363,8.87043 6.2817,6.41212 8.69,10.02202 8.69,13.02582 0,3.21609 -6.68232,11.8176 -29.56114,38.05115 -16.25863,18.64264 -30.29961,34.40857 -31.20219,35.03527 -3.68653,2.56007 -7.02819,0.75037 -14.27683,-7.73184 z M 132.2721,893.18972 c -26.56038,-27.41236 -39.461999,-41.79314 -39.461999,-43.98633 0,-3.99349 25.959029,-34.88299 31.078219,-36.981 3.35011,-1.37298 6.56851,1.5586 43.41143,39.54274 30.95944,31.91841 39.79306,41.89143 39.79306,44.92584 0,2.50845 -3.01486,7.49395 -8.44865,13.97111 -16.04554,19.12647 -20.2355,23.25547 -23.59883,23.25547 -2.32646,0 -15.04721,-12.11244 -42.77323,-40.72783 z M 26.427666,907.45743 C 15.382859,894.61058 5.7245574,882.71964 4.9647584,881.0331 c -2.596699,-5.76394 9.8590026,-18.68691 15.0968796,-15.66324 1.524967,0.88033 11.726653,11.95214 22.67041,24.60404 21.840227,25.24911 22.935853,27.70203 16.110679,36.06901 -7.386602,9.05524 -9.881168,7.62494 -32.415061,-18.58548 z M 60.6551,902.89057 c -2.990898,-3.41494 -5.437992,-7.79661 -5.437992,-9.73705 0,-5.08316 27.622433,-35.24113 32.278233,-35.24113 4.17186,0 14.337079,10.99596 14.337079,15.50878 0,4.44053 -28.446935,35.61563 -32.530933,35.65076 -1.858039,0.016 -5.497146,-2.58562 -8.646387,-6.18136 z m 12.088131,-68.88633 c -21.017158,-7.98491 -25.358734,-35.94261 -8.020163,-51.64601 12.676071,-11.48063 31.800953,-7.22316 39.837152,8.86828 6.91748,13.85138 2.15128,33.2912 -9.973669,40.67938 -6.23439,3.79885 -15.12055,4.65248 -21.84332,2.09835 z M 138.80506,814.4403 c -10.60341,-10.08199 -10.44068,-11.0304 5.13152,-29.90711 7.21653,-8.74793 10.74299,-11.85938 13.47656,-11.89053 4.59926,-0.0524 16.59783,11.65656 16.59783,16.19721 0,3.44518 -20.76665,29.25428 -24.83425,30.86436 -3.53112,1.39773 -3.17585,1.57804 -10.37166,-5.26393 z m 48.73939,-22.76663 C 175.55228,779.99781 164.84808,768.78664 163.75733,766.76 c -2.10309,-3.90762 -1.7452,-4.84015 5.39851,-14.06669 5.04806,-6.51988 8.96162,-4.20973 33.30047,19.65718 25.55936,25.06374 26.46395,26.88191 17.72245,35.6216 -2.72727,2.72671 -6.2798,4.95153 -7.89453,4.94404 -1.69567,-0.008 -12.14638,-8.98122 -24.73978,-21.24246 z"
       id="path4304"
       inkscape:connector-curvature="0"
       sodipodi:nodetypes="sscsssssssssssssscssssssssssssssssssssssssssssssssssssssssssscs" />
    <g
       id="g4448"
       transform="translate(82.497458,4.9121413)">
      <g
         id="g4523" />
    </g>
    <g
       style="font-style:normal;font-weight:normal;font-size:100.25455475px;line-height:125%;font-family:Sans;letter-spacing:0px;word-spacing:0px;fill:#000000;fill-opacity:1;stroke:none;stroke-width:2;stroke-linecap:butt;stroke-linejoin:miter;stroke-miterlimit:4;stroke-dasharray:none;stroke-opacity:1"
       id="text4919"
       transform="translate(-18.571429,731.42857)">
      <path
         id="path4968"
         style="font-style:normal;font-variant:normal;font-weight:normal;font-stretch:condensed;font-size:375.95452881px;line-height:125%;font-family:Impact;-inkscape-font-specification:'Impact, Condensed';text-align:start;writing-mode:lr-tb;text-anchor:start;fill:#002142;fill-opacity:1;stroke:#002142;stroke-width:6.13534784;stroke-linejoin:round;stroke-miterlimit:4;stroke-dasharray:none;stroke-opacity:1"
         d="m 965.91493,284.68646 c -54.69982,0 -109.39965,0 -164.09947,0 0,9.23756 -2e-5,18.47511 0,27.71265 45.57792,-0.85058 91.46866,2.56644 136.71098,-3.12573 12.24482,-2.26858 23.7411,-10.84713 27.17666,-23.64126 -0.37275,0.11362 0.84803,-1.26327 0.21183,-0.94566 z m -321.1616,27.76349 c 40.84018,0 81.68036,0 122.52054,0 0,-9.2545 0,-18.50899 0,-27.76349 -40.84018,0 -81.68036,0 -122.52054,0 0,9.2545 0,18.50899 0,27.76349 z M 492.45734,287.68408 c 1.40116,8.26353 2.82406,16.52328 4.33657,24.76587 28.86998,0 57.73995,0 86.60992,0 1.03038,-9.2545 2.06074,-18.50899 3.09111,-27.76349 -31.51063,0 -63.02125,0 -94.53187,0 0.16477,0.99921 0.32952,1.99841 0.49427,2.99762 z m -136.67962,24.76587 c 28.60519,0 57.21038,0 85.81557,0 1.26508,-9.2545 2.53015,-18.50899 3.79523,-27.76349 -30.90652,0 -61.81304,0 -92.71956,0 1.03625,9.2545 2.0725,18.50899 3.10876,27.76349 z m 446.03774,-44.28694 c 21.85285,0 43.70572,0 65.55858,0 0,-9.47006 0,-18.94012 0,-28.41018 -21.85286,-2e-5 -43.70573,0 -65.55858,0 0,9.47006 0,18.94012 0,28.41018 z m 102.93041,-26.47618 c -10e-4,9.65584 -1.59653,21.81342 -10.98364,26.47618 25.12602,-0.14291 50.73915,0.28546 75.56156,-0.21354 1.07298,-9.26664 1.12958,-18.72894 1.11013,-28.19664 -21.88816,0 -43.77635,-2e-5 -65.6645,0 l -0.0129,1.04115 -0.0104,0.89285 z m -259.99254,26.46805 c 40.80527,-0.18121 81.61385,0.40437 122.41659,-0.28269 0.0423,-2.12795 1.79172,-6.80006 -2.20458,-5.13905 -18.20959,0.80649 -36.43702,-0.0495 -54.65341,0.30912 0,-7.76315 0,-15.5263 0,-23.28943 -21.85287,-2e-5 -43.70573,0 -65.5586,0 0,9.46733 0,18.9347 0,28.40205 z M 485.50038,243.02701 c 1.23255,8.39179 2.48394,16.78651 3.80898,25.136 33.0091,0 66.01819,0 99.02729,0 1.05456,-9.47006 2.10912,-18.94012 3.16368,-28.41018 -35.48891,0 -70.97783,-2e-5 -106.46675,0 0.15559,1.09139 0.3112,2.18279 0.4668,3.27418 z m -134.68295,25.136 c 32.27555,0 64.55111,0 96.82666,0 1.28077,-9.47006 2.56154,-18.94012 3.84231,-28.41018 -34.61612,-2e-5 -69.23222,-2e-5 -103.84834,0 1.05978,9.47006 2.11958,18.94012 3.17937,28.41018 z m 555.36613,-73.43942 c -3.9217,-0.26419 -0.57937,5.45762 -1.39537,7.92237 0.25931,6.85851 -0.006,13.72259 0.0224,20.5834 21.8764,0 43.75281,0 65.62921,0 0.0279,-9.50713 -0.0657,-19.00988 -1.80446,-28.40816 -20.81598,-0.17474 -41.6581,0.28808 -62.4518,-0.0975 z m -104.3681,28.50577 c 21.85285,0 43.70572,0 65.55858,0 0,-9.47006 0,-18.94012 0,-28.41018 -21.85286,0 -43.70573,0 -65.55858,0 0,9.47006 0,18.94012 0,28.41018 z m -157.06213,0 c 21.85287,0 43.70573,0 65.5586,0 0,-9.47006 0,-18.94012 0,-28.41018 -21.85287,0 -43.70573,0 -65.5586,0 0,9.47006 0,18.94012 0,28.41018 z m -165.3273,-25.04652 c 1.08083,8.35135 2.14617,16.70491 3.2951,25.04652 12.36967,0 24.73934,0 37.109,0 -0.68321,-9.47006 -1.36641,-18.94012 -2.04962,-28.41018 -12.92408,0 -25.84816,0 -38.77225,0 0.13927,1.12122 0.27852,2.24243 0.41777,3.36366 z m 54.76325,0.88871 c -0.51412,8.0046 -1.06694,16.10928 -1.53967,24.15781 20.23082,0 40.46163,0 60.69246,0 1.05456,-9.47006 2.10912,-18.94012 3.16368,-28.41018 -20.67214,0 -41.34426,0 -62.01637,0 -0.10001,1.41745 -0.20007,2.8349 -0.3001,4.25237 z m -8.66923,35.31852 c -5.33795,6.42366 6.59703,1.8934 0,0 z m -100.95337,-39.577 c -4.4903,0.49029 -12.05811,-2.19359 -10.16429,5.31481 -0.0843,7.34259 -0.68351,15.80993 -1.67058,22.46901 13.60641,1.14505 27.28354,0.47743 40.97485,0.61009 1.2606,-9.46799 2.50616,-18.91047 3.75014,-28.37968 -10.96337,0.048 -21.92676,-0.0755 -32.89012,-0.0142 z m -78.78407,28.4102 c 18.66486,-0.0944 37.33142,0.2083 55.99498,-0.12811 -2.2146,-9.25015 -1.47773,-18.88102 -2.59684,-28.27596 -18.85852,0 -37.71704,0 -56.57556,0 1.05914,9.46802 2.11828,18.93606 3.17742,28.40409 z M 917.8066,149.9384 c -38.65984,-0.12569 -77.32806,-0.0202 -115.99114,-0.0549 0,9.46871 -2e-5,18.93741 0,28.40612 21.69667,-0.38015 44.2012,0.78963 65.40757,-0.56129 2.51513,-7.08292 11.24059,-4.70044 16.62255,-4.00631 5.24683,0.14751 10.16793,2.58655 14.72199,4.56758 21.51985,-0.13647 43.04243,0.28286 64.56027,-0.16878 -8.57393,-14.54581 -25.97703,-18.25143 -40.61593,-22.33362 -1.93788,-1.16432 -2.58054,-3.9153 -1.52398,-5.92607 -1.06044,0.0257 -2.12089,0.0515 -3.18133,0.0773 z m -273.05327,28.35732 c 38.01386,0 76.0277,0 114.04156,0 0,-9.47076 0,-18.94149 0,-28.41223 -38.01386,0 -76.0277,0 -114.04156,0 0,9.47074 0,18.94147 0,28.41223 z M 537.61186,154.3677 c -0.65625,7.99269 -1.3137,15.93524 -1.91429,23.92802 20.88329,0 41.7666,0 62.64989,0 1.05456,-9.47076 2.10912,-18.94149 3.16367,-28.41223 -21.17031,0 -42.34062,0 -63.51092,0 -0.12944,1.49473 -0.2589,2.98947 -0.38835,4.48421 z m -119.47846,0.49621 c -0.68234,7.80873 -1.38566,15.62744 -1.99077,23.4196 14.45207,-0.31222 29.66418,0.68707 43.6423,-0.47588 1.18829,-9.35044 1.41528,-19.00913 4.6857,-27.92414 -15.2921,0 -30.5842,0 -45.8763,0 -0.15364,1.66015 -0.30728,3.32028 -0.46093,4.98042 z m 54.36118,-4.41914 c 3.25154,8.89068 3.18064,18.5447 4.36795,27.85095 13.24248,0 26.48496,0 39.72744,0 -0.68387,-9.47076 -1.36773,-18.94149 -2.05159,-28.41223 -14.08521,0 -28.17042,0 -42.25563,0 l 0.21183,0.56128 z m -131.74091,27.85095 c 19.0115,0 38.02301,0 57.03451,0 -0.73813,-9.47076 -1.47626,-18.94149 -2.21438,-28.41223 -19.33383,0 -38.66764,0 -58.00145,0 1.06043,9.47074 2.12088,18.94147 3.18132,28.41223 z m 461.06179,-44.93367 c 21.85285,6.9e-4 43.70572,10e-4 65.55858,0.003 0,-9.47142 0,-18.94283 0,-28.41426 -21.85286,0 -43.70573,0 -65.55858,0 0,9.47074 -2e-5,18.94149 0,28.41222 z m 102.60287,-26.64089 c -0.14589,9.18716 -0.25048,20.67441 -8.3456,26.63887 20.02508,-0.11697 40.2254,0.21196 60.1413,-0.18303 6.93752,-7.46347 7.86734,-18.41072 8.42798,-28.22717 -20.05102,0 -40.10204,0 -60.15308,0 l -0.0415,1.04035 -0.0291,0.73098 z m -259.665,26.63683 c 21.85286,-0.072 43.70573,0.0307 65.5586,0.0366 0,-9.48158 0,-18.96317 0,-28.44476 -21.85287,0 -43.70573,0 -65.5586,0 0,9.46939 0,18.93876 0,28.40815 z M 541.78957,109.552 c -0.78296,7.93516 -1.57468,15.86959 -2.30656,23.81005 21.29061,0 42.5812,0 63.87181,0 1.0539,-9.47073 2.10782,-18.94147 3.16173,-28.41222 -21.41679,0 -42.83358,0 -64.25037,0 -0.15887,1.53406 -0.31775,3.06812 -0.47661,4.60217 z m -119.19994,0.40877 c -0.8111,7.80336 -1.65065,15.61575 -2.40856,23.40128 31.0556,0 62.11118,0 93.16675,0 -0.68457,-9.47193 -1.35503,-18.94501 -2.09866,-28.41222 -29.37141,0 -58.74284,0 -88.11428,0 -0.18175,1.67032 -0.3635,3.34063 -0.54525,5.01094 z m -86.86881,23.40128 c 19.52275,0 39.04552,0 58.56828,0 -0.73439,-9.46945 -1.4737,-18.93851 -2.15553,-28.41222 -19.8647,0 -39.72939,0 -59.59409,0 1.06045,9.47075 2.12089,18.94149 3.18134,28.41222 z M 801.81546,88.426375 c 21.85285,0 43.70572,0 65.55858,0 0,-9.47006 0,-18.94012 0,-28.41018 -21.85286,0 -43.70573,0 -65.55858,0 0,9.47006 -2e-5,18.94012 0,28.41018 z M 895.5157,60.370038 c 8.21776,6.384114 9.13952,18.235666 9.27921,28.050233 19.97051,-0.08129 39.9424,0.190155 59.91184,-0.124077 -0.36106,-9.50499 -1.24779,-19.041341 -3.51281,-28.280026 -22.06601,0 -44.13201,0 -66.198,0 l 0.51976,0.353843 z M 758.32809,59.707073 c -37.84953,0.827915 -75.71743,-0.01811 -113.57476,0.309122 0,9.47006 0,18.94012 0,28.41018 21.85287,0 43.70573,0 65.5586,0 0,-7.82755 0,-15.655086 0,-23.482635 17.22209,-0.273186 34.54482,0.398874 51.70156,-0.272515 0.24499,-2.476919 1.57575,-6.912713 -2.77059,-5.004917 l -0.91481,0.04078 z m -211.59588,5.012964 c -0.9178,7.900025 -1.84743,15.798721 -2.70277,23.706338 21.4436,0 42.8872,0 64.33079,0 1.05391,-9.47006 2.10781,-18.94012 3.16171,-28.41018 -21.40697,0 -42.81396,0 -64.22094,0 -0.1896,1.567943 -0.3792,3.135886 -0.56879,4.703842 z m -119.05677,0.313187 c -0.9185,7.795611 -1.82422,15.592966 -2.70669,23.393151 28.3306,0 56.66121,0 84.99181,0 -0.74402,-9.470624 -1.49458,-18.94067 -2.25166,-28.41018 -26.47709,0 -52.95421,0 -79.43132,0 -0.2007,1.672343 -0.40142,3.344686 -0.60214,5.017029 z m -96.98749,23.393151 c 20.07783,0 40.15566,0 60.2335,0 -0.69498,-9.47006 -1.38997,-18.94012 -2.08494,-28.41018 -20.44265,0 -40.88529,0 -61.32793,0 1.05979,9.47006 2.11958,18.94012 3.17937,28.41018 z M 860.70149,15.371319 c -19.62686,0.363923 -39.25753,0.193926 -58.88603,0.12609 0,9.329739 0,18.659474 0,27.989212 50.86411,-0.2578 102.32822,0.538552 152.81771,-0.378257 C 944.50469,25.87844 924.64573,17.755923 905.84244,17.16829 890.82526,15.487366 875.79284,15.282436 860.70149,15.371321 Z M 644.75333,43.492724 c 39.12006,0 78.24013,0 117.36019,0 0,-9.334486 0,-18.668967 0,-28.003453 -39.12006,10e-7 -78.24013,0 -117.36019,0 0,9.334486 0,18.668967 0,28.003453 z M 552.41035,20.22566 c -1.03277,7.714733 -2.08806,15.510689 -3.0656,23.267064 21.34029,0 42.68058,0 64.02088,0 1.03887,-9.334486 2.07773,-18.668967 3.11661,-28.003453 -21.13763,0 -42.27525,10e-7 -63.41286,0 -0.21969,1.578797 -0.43936,3.157592 -0.65903,4.736389 z m -119.20778,0.20133 c -0.97768,7.696818 -1.94737,15.368205 -2.8989,23.065734 25.3526,0 50.70518,0 76.05778,0 -0.79255,-9.336941 -1.53482,-18.679147 -2.45759,-28.003453 -23.35266,10e-7 -46.70532,0 -70.05796,0 -0.21444,1.645908 -0.4289,3.291814 -0.64333,4.937719 z M 325.6551,43.492724 c 20.65578,0 41.31154,0 61.96732,0 -0.68517,-9.334486 -1.37032,-18.668967 -2.05549,-28.003453 -21.01538,0 -42.03073,10e-7 -63.04611,0 1.04477,9.334486 2.08951,18.668967 3.13428,28.003453 z"
         inkscape:connector-curvature="0" />
    </g>
  </g>
</svg>
